<?xml version="1.0" encoding="UTF-8" standalone="no"?>
<svg
   xmlns="http://www.w3.org/2000/svg"
   id="svg1031"
   version="1.1"
   viewBox="0 0 51.345978 43.960468"
   height="43.960468mm"
   width="51.345978mm">
  <defs
     id="defs1025" />
  <g
     transform="translate(-82.428203,-95.103094)"
     id="layer1">
    <g
       transform="translate(10.928829,169.47437)"
       id="g1023">
      <path
         style="opacity:1;fill:#000000;fill-opacity:1;fill-rule:evenodd;stroke:none;stroke-width:0.67526293;stroke-linecap:round;stroke-linejoin:round;stroke-miterlimit:4;stroke-dasharray:none;stroke-opacity:1;paint-order:markers fill stroke"
         d="M 96.199402,-30.410808 113.77727,-47.988686 H 78.621529 Z"
         id="rect914" />
      <path
         id="path885"
         style="font-style:normal;font-variant:normal;font-weight:500;font-stretch:normal;font-size:30.18417549px;line-height:1.25;font-family:aakar;-inkscape-font-specification:'aakar, Medium';font-variant-ligatures:normal;font-variant-caps:normal;font-variant-numeric:normal;font-feature-settings:normal;text-align:start;letter-spacing:0px;word-spacing:0px;writing-mode:lr-tb;text-anchor:start;fill:#000000;fill-opacity:1;stroke:none;stroke-width:0.46877918"
         d="m 76.66327,-74.371253 v 0.347917 q -0.988831,0 -1.355065,0.311302 -0.347922,0.292989 -0.347922,1.336753 v 8.661425 q 0,0.512728 0.32961,0.640911 0.32961,0.10987 1.51987,0.10987 2.325585,0 3.112987,-0.329609 1.117014,-0.457793 1.849481,-2.142469 h 0.457792 l -0.878961,3.186233 h -9.851688 v -0.347918 q 0.915584,0 1.245195,-0.311302 0.347922,-0.329609 0.347922,-1.336752 v -8.130389 q 0,-1.043764 -0.329611,-1.336753 -0.32961,-0.311302 -1.263506,-0.311302 v -0.347917 z" />
      <path
         id="path887"
         style="font-style:normal;font-variant:normal;font-weight:500;font-stretch:normal;font-size:30.18417549px;line-height:1.25;font-family:aakar;-inkscape-font-specification:'aakar, Medium';font-variant-ligatures:normal;font-variant-caps:normal;font-variant-numeric:normal;font-feature-settings:normal;text-align:start;letter-spacing:0px;word-spacing:0px;writing-mode:lr-tb;text-anchor:start;fill:#000000;fill-opacity:1;stroke:none;stroke-width:0.46877918"
         d="m 87.741841,-64.501253 v -2.655197 q -1.812857,0.604284 -2.508702,1.391687 -0.457792,0.512728 -0.457792,1.171948 0,0.659219 0.347923,1.062077 0.347922,0.402859 0.860649,0.402859 0.274675,0 0.604285,-0.10987 0.329611,-0.10987 0.531039,-0.21974 0.402858,-0.183119 0.512727,-0.384545 0.109871,-0.219739 0.109871,-0.659219 z m 2.838311,1.043764 v 0.476101 q -0.494415,0.585976 -0.988831,0.787402 -0.311299,0.128184 -0.640909,0.128184 -0.457792,0 -0.714156,-0.164805 -0.476104,-0.311296 -0.476104,-1.171947 -0.677532,0.604284 -1.190259,0.897273 -0.769091,0.439479 -1.464935,0.439479 -0.787403,0 -1.373377,-0.512728 -0.567662,-0.512728 -0.567662,-1.391687 0,-1.245196 1.171948,-2.050907 0.805714,-0.549355 3.405974,-1.574805 v -1.117013 q 0,-0.860651 -0.494416,-1.245196 -0.366234,-0.274675 -0.915584,-0.274675 -0.494416,0 -0.897273,0.256361 -0.402857,0.238054 -0.402857,0.640912 0,0.183112 0.01831,0.384545 0.03662,0.183118 0.07325,0.329609 0,0.311296 -0.238052,0.54935 -0.238051,0.238053 -0.585974,0.238053 -0.384545,0 -0.585974,-0.256361 -0.201428,-0.274681 -0.201428,-0.549355 0,-0.677533 0.695844,-1.281818 0.860649,-0.750775 2.288961,-0.750775 1.776234,0 2.380519,1.043764 0.347922,0.604284 0.347922,1.886101 v 3.570784 q 0,0.567663 0.07325,0.824024 0.09156,0.238053 0.457792,0.238053 0.256364,0 0.439481,-0.09156 0.183116,-0.09156 0.384545,-0.256361 z" />
      <path
         id="path889"
         style="font-style:normal;font-variant:normal;font-weight:500;font-stretch:normal;font-size:30.18417549px;line-height:1.25;font-family:aakar;-inkscape-font-specification:'aakar, Medium';font-variant-ligatures:normal;font-variant-caps:normal;font-variant-numeric:normal;font-feature-settings:normal;text-align:start;letter-spacing:0px;word-spacing:0px;writing-mode:lr-tb;text-anchor:start;fill:#000000;fill-opacity:1;stroke:none;stroke-width:0.46877918"
         d="M 105.70107,-47.431682 H 86.69772 c 2.940614,-2.496362 8.682576,-9.339561 8.590979,-16.993912 l -0.02075,-9.17657 h -0.988832 c -1.013247,0 -1.702987,0.146491 -2.069221,0.43948 -0.366234,0.280781 -0.647012,0.915586 -0.842337,1.904415 h -0.329611 v -3.112984 h 10.327802 v 3.112984 h -0.32961 c -0.18312,-0.988829 -0.45781,-1.623634 -0.82403,-1.904415 -0.36624,-0.292989 -1.062084,-0.43948 -2.087538,-0.43948 h -0.988831 c 0,0 -0.0587,8.803605 0,9.155815 -0.112236,7.915632 7.521539,17.406579 8.565339,17.014667 z" />
      <path
         id="path891"
         style="font-style:normal;font-variant:normal;font-weight:500;font-stretch:normal;font-size:30.18417549px;line-height:1.25;font-family:aakar;-inkscape-font-specification:'aakar, Medium';font-variant-ligatures:normal;font-variant-caps:normal;font-variant-numeric:normal;font-feature-settings:normal;text-align:start;letter-spacing:0px;word-spacing:0px;writing-mode:lr-tb;text-anchor:start;fill:#000000;fill-opacity:1;stroke:none;stroke-width:0.46877918"
         d="m 109.2947,-65.252035 0.29298,0.128184 q -0.31129,0.952208 -1.00714,1.739611 -1.17195,1.318438 -2.87493,1.318438 -1.5565,0 -2.49039,-1.080391 -0.9339,-1.080385 -0.9339,-3.021428 0,-2.28896 1.31844,-3.515842 1.06208,-0.988829 2.41714,-0.988829 1.37338,0 2.1791,0.769089 0.89727,0.842338 1.04376,2.581948 h -5.69493 q 0,2.197404 0.98883,3.204547 0.76909,0.787403 1.92273,0.787403 1.06207,0 1.86779,-0.695847 0.45779,-0.402858 0.97052,-1.226883 z m -5.69494,-2.655197 h 3.77221 q -0.14649,-0.952207 -0.38455,-1.373373 -0.42116,-0.732468 -1.37337,-0.732468 -0.82403,0 -1.31844,0.476101 -0.47611,0.457793 -0.69585,1.62974 z" />
      <path
         id="path893"
         style="font-style:normal;font-variant:normal;font-weight:500;font-stretch:normal;font-size:30.18417549px;line-height:1.25;font-family:aakar;-inkscape-font-specification:'aakar, Medium';font-variant-ligatures:normal;font-variant-caps:normal;font-variant-numeric:normal;font-feature-settings:normal;text-align:start;letter-spacing:0px;word-spacing:0px;writing-mode:lr-tb;text-anchor:start;fill:#000000;fill-opacity:1;stroke:none;stroke-width:0.46877918"
         d="m 122.69885,-74.371253 v 0.347917 q -0.80571,0 -1.24519,0.256367 -0.56767,0.32961 -1.48325,1.464936 l -2.67351,3.332724 3.51585,5.017405 q 0.54935,0.787403 0.91558,1.080386 0.38455,0.27468 1.11702,0.27468 v 0.347918 h -5.43858 v -0.347918 q 0.64091,0 0.84234,-0.03665 0.56766,-0.09156 0.56766,-0.58597 0,-0.21974 -0.34792,-0.824031 -0.23805,-0.402852 -0.58597,-0.91558 l -1.73961,-2.563641 -2.17909,2.710132 q -0.4578,0.567663 -0.6226,0.805717 -0.32961,0.4761 -0.32961,0.732468 0,0.384544 0.38454,0.531035 0.38455,0.146498 1.00715,0.146498 v 0.347917 h -4.26663 v -0.347917 q 0.82403,0 1.44663,-0.640912 0.20143,-0.201426 1.20857,-1.446622 l 2.87493,-3.534156 -1.99597,-2.929872 q -1.11701,-1.629741 -1.95935,-2.435451 -0.45779,-0.439486 -1.35507,-0.439486 v -0.347917 h 5.53013 v 0.347917 q -0.73246,0 -0.84233,0.01833 -0.54935,0.09156 -0.54935,0.567664 0,0.274674 0.32961,0.860651 0.34792,0.585971 1.22688,1.84948 l 0.76909,1.080386 2.06922,-2.527014 q 0.21974,-0.292982 0.40286,-0.531035 0.32961,-0.457794 0.32961,-0.714155 0,-0.38455 -0.34792,-0.49442 -0.32961,-0.10987 -0.9339,-0.10987 v -0.347917 z" />
    </g>
  </g>
</svg>
